<svg version="1.1" xmlns="http://www.w3.org/2000/svg" width="512px" height="512px" transform="rotate(0) scale(1, 1)">
<path d="M0 0 C1.25803169 -0.00668677 1.25803169 -0.00668677 2.54147816 -0.01350862 C3.46295485 -0.01332426 4.38443155 -0.01313989 5.33383179 -0.01294994 C6.80223904 -0.01846498 6.80223904 -0.01846498 8.30031109 -0.02409142 C11.59583235 -0.03514518 14.89132209 -0.03897501 18.18685913 -0.04278088 C20.54380901 -0.04904436 22.90075789 -0.05569106 25.25770569 -0.0626936 C32.34296024 -0.08193506 39.42821126 -0.09252527 46.51348543 -0.10142139 C49.85231396 -0.1058062 53.19114099 -0.11117263 56.52996826 -0.11641026 C67.63389252 -0.1334247 78.7378158 -0.14791684 89.8417511 -0.155159 C92.72322592 -0.15706882 95.60470074 -0.15898916 98.48617554 -0.16094494 C99.5604099 -0.16167055 99.5604099 -0.16167055 100.65634596 -0.16241082 C112.24648875 -0.17070347 123.83652808 -0.19602642 135.42662573 -0.22852562 C147.33371655 -0.26164051 159.2407549 -0.27961189 171.147892 -0.28280324 C177.83006706 -0.2849646 184.51211164 -0.29410385 191.19424438 -0.31926441 C197.48482398 -0.34256698 203.77513281 -0.34676932 210.0657444 -0.33650303 C212.37031772 -0.33600806 214.67490447 -0.34231694 216.97943687 -0.35605907 C233.7276998 -0.45031343 245.79699324 0.68671396 258.89779663 12.13422108 C267.482355 21.16403662 271.0768837 33.00128926 271.00308418 45.31375122 C270.94693924 47.12989357 270.87845981 48.94568497 270.79943848 50.76097584 C270.76571919 51.77216868 270.73199991 52.78336152 270.69725883 53.82519656 C270.62307266 56.02448583 270.54378152 58.22360763 270.45992088 60.42254925 C270.22739587 66.55511706 270.03642219 72.68903907 269.8404541 78.82286549 C269.79782354 80.12930149 269.75519297 81.4357375 269.71127057 82.78176248 C269.40103055 92.42763905 269.17630819 102.07360744 268.99932861 111.72279835 C268.98637769 112.42550722 268.97342676 113.1282161 268.96008338 113.85221919 C268.82724215 121.11865033 268.70425015 128.38522279 268.58775527 135.65193306 C268.52747196 139.37987617 268.46444982 143.10776815 268.39974976 146.83563709 C268.3805051 147.94818239 268.3805051 147.94818239 268.36087166 149.08320335 C268.17538746 159.51450177 267.85993748 169.93500907 267.44381914 180.35954298 C266.72704986 198.32922992 266.26722263 216.28589822 266.28060913 234.27093983 C266.2804814 234.96399115 266.28035366 235.65704248 266.28022206 236.37109536 C266.30673854 269.67515827 267.67281141 299.13392371 292.20587158 324.05214405 C303.02870641 334.49435227 314.98252442 343.45181062 327.89779663 351.13422108 C326.11578976 354.98450099 323.82104258 357.41413528 320.77279663 360.38422108 C319.86271851 361.27625233 318.95264038 362.16828358 318.01498413 363.08734608 C316.96697632 364.1005492 316.96697632 364.1005492 315.89779663 365.13422108 C310.69230647 360.78580728 305.85146325 356.21118577 301.08578491 351.38812733 C300.33844086 350.63611042 299.5910968 349.88409351 298.82110596 349.10928822 C297.20883484 347.48656769 295.59766455 345.86275282 293.98749161 344.23795033 C291.43360672 341.66191948 288.87566726 339.08998081 286.31646729 336.51923084 C279.04387863 329.2131644 271.77543428 321.90301604 264.51742554 314.58246326 C260.06788596 310.09516439 255.61097045 305.61530459 251.1493187 301.14004993 C249.45695748 299.43966503 247.7673711 297.73651348 246.08069229 296.03049183 C243.71692669 293.64008843 241.34386696 291.25927996 238.96859741 288.88031483 C238.2825946 288.18195515 237.5965918 287.48359547 236.88980103 286.76407337 C229.33429362 279.2392996 221.58717016 273.24950112 210.64779663 272.75922108 C203.62492498 272.94027204 197.86790696 274.46758936 192.56576538 279.22797108 C187.00999224 285.23421231 184.05816606 290.79501071 183.89779663 299.13422108 C184.89395114 312.85901658 194.50068234 321.12024157 203.798563 330.16878605 C205.82822316 332.14574685 207.84661477 334.13360925 209.86231995 336.12479115 C215.58918593 341.7787242 221.33309823 347.41510899 227.0899353 353.03851795 C230.62385196 356.49204177 234.1429762 359.96008004 237.6534481 363.43742466 C238.98944202 364.75482973 240.33109745 366.06651944 241.67850685 367.37224674 C243.55953521 369.19553863 245.42126358 371.03665939 247.27987671 372.88275623 C247.83725021 373.41384495 248.39462372 373.94493366 248.96888733 374.49211597 C252.63723101 378.18882596 253.7505053 380.94443764 253.89779663 386.13422108 C252.99935913 388.66156483 252.99935913 388.66156483 251.52279663 391.07172108 C250.96592163 392.02047108 250.40904663 392.96922108 249.83529663 393.94672108 C249.19592163 394.99859608 248.55654663 396.05047108 247.89779663 397.13422108 C229.49293414 427.8089919 221.1088172 460.86485136 220.29232788 496.49750233 C220.25244369 498.02441434 220.21196018 499.55131082 220.17086792 501.0781908 C220.07296395 504.76338175 219.98306863 508.44871358 219.89779663 512.13422108 C190.89912298 512.25111529 161.90048473 512.33923928 132.90162277 512.39328194 C130.21903209 512.39838101 127.53644163 512.40358762 124.85385132 512.40887928 C124.18710133 512.41019083 123.52035135 512.41150238 122.83339682 512.41285368 C112.05526629 512.43457565 101.2772699 512.47397929 90.49921879 512.51998506 C79.42956613 512.56683939 68.35998723 512.59416142 57.29024053 512.60466355 C51.07684131 512.61117167 44.86374575 512.62642631 38.65044403 512.66287136 C32.79652083 512.69692868 26.94302501 512.7072542 21.08901215 512.69975948 C18.94610264 512.70112966 16.80317814 512.71100356 14.66035461 512.73024845 C-1.7295952 512.87016885 -13.64142108 511.06977581 -25.96939087 499.36078358 C-33.65375307 491.28066023 -37.25980256 481.74800384 -37.23642445 470.73864365 C-37.23877668 469.98768591 -37.24112891 469.23672818 -37.24355242 468.46301416 C-37.25023932 465.93241713 -37.24978429 463.40187149 -37.24937439 460.87126637 C-37.25267321 459.04424161 -37.25639881 457.21721757 -37.26051587 455.39019448 C-37.27054198 450.35816876 -37.27425365 445.32615496 -37.27690518 440.29412067 C-37.28080643 434.87129355 -37.2903849 429.44847588 -37.29911804 424.02565479 C-37.31888769 410.92370793 -37.32894937 397.82176028 -37.33784583 384.71980223 C-37.34222798 378.55127591 -37.34759498 372.38275045 -37.3528347 366.21422482 C-37.36984761 345.71095012 -37.384342 325.20767596 -37.39158344 304.70439529 C-37.39349337 299.38274542 -37.39541204 294.06109555 -37.39736938 288.73944569 C-37.39760953 288.07830543 -37.39784968 287.41716516 -37.39809711 286.73599035 C-37.40574301 265.97116673 -37.42740987 245.20639463 -37.45889282 224.44159412 C-37.49424685 201.11344129 -37.51583798 177.78532577 -37.51922768 154.45714527 C-37.52139346 142.10538845 -37.53015204 129.75371301 -37.55568886 117.4019804 C-37.57738602 106.88305854 -37.58545108 96.36423783 -37.57572208 85.84529614 C-37.57117455 80.4788954 -37.57309015 75.11270339 -37.59248352 69.74633121 C-37.61009531 64.83045596 -37.60913341 59.91494201 -37.59358623 54.99906302 C-37.59120716 53.2237587 -37.5955492 51.44842949 -37.60741488 49.67316323 C-37.69952668 34.97788867 -35.38718873 23.08265253 -25.10220337 11.97406483 C-18.49490197 5.66173224 -9.39956477 0.0231887 0 0 Z M-15.10220337 28.13422108 C-20.32222164 35.48903674 -19.10220337 41.76123976 -19.10220337 51.13422108 C70.65779663 51.13422108 160.41779663 51.13422108 252.89779663 51.13422108 C252.89779663 40.90574026 252.43699227 31.71198037 244.89779663 24.13422108 C240.22517972 20.61375628 235.86020768 18.01332902 229.89374161 18.00279331 C229.07697079 17.99895217 228.26019997 17.99511102 227.41867852 17.99115348 C226.52170998 17.99201996 225.62474144 17.99288644 224.70059204 17.99377918 C223.74741647 17.99080806 222.79424091 17.98783694 221.81218123 17.98477578 C218.60405727 17.97607346 215.39597055 17.97457923 212.18783569 17.97308826 C209.89336059 17.96846116 207.59888627 17.96343665 205.30441284 17.9580431 C199.06051825 17.94490641 192.81663441 17.93847163 186.57272816 17.93403244 C182.67353228 17.93110367 178.77433935 17.92699923 174.87514496 17.92252827 C164.0783153 17.91041762 153.28148951 17.90003626 142.48465347 17.89665318 C141.44807137 17.89632383 141.44807137 17.89632383 140.39054821 17.89598782 C139.6978429 17.89576955 139.00513759 17.89555127 138.2914412 17.89532638 C136.88776541 17.89488291 135.48408961 17.89443635 134.08041382 17.8939867 C133.03600705 17.89365456 133.03600705 17.89365456 131.97050115 17.8933157 C120.6913023 17.88936866 109.41216809 17.87191771 98.1329942 17.84862718 C86.55136464 17.82490529 74.9697707 17.81270884 63.3881166 17.81128526 C56.8860589 17.81023625 50.38409235 17.8043081 43.88205719 17.78646564 C37.76552558 17.77000804 31.64915386 17.76781831 25.53260803 17.77660465 C23.28763654 17.77737627 21.04265653 17.77301595 18.7977066 17.7631464 C15.73259191 17.75046151 12.66804642 17.75628521 9.60293579 17.7667284 C8.71489014 17.758672 7.82684449 17.75061559 6.91188836 17.74231505 C-2.34081733 17.81602607 -8.88709524 21.24502313 -15.10220337 28.13422108 Z M-19.10220337 69.13422108 C-19.10220337 186.94422108 -19.10220337 304.75422108 -19.10220337 426.13422108 C51.18779663 426.13422108 121.47779663 426.13422108 193.89779663 426.13422108 C193.89779663 432.07422108 193.89779663 438.01422108 193.89779663 444.13422108 C123.60779663 444.13422108 53.31779663 444.13422108 -19.10220337 444.13422108 C-21.36113215 468.7582887 -21.36113215 468.7582887 -12.07485962 487.57172108 C-11.12933228 488.34515858 -11.12933228 488.34515858 -10.16470337 489.13422108 C-9.53692993 489.67047108 -8.90915649 490.20672108 -8.26235962 490.75922108 C-3.02032075 494.09592575 2.22690251 494.42067732 8.2880249 494.37473011 C9.11802903 494.37643896 9.94803315 494.37814781 10.80318892 494.37990844 C13.57618717 494.38319496 16.34894187 494.37221346 19.12191772 494.36127186 C21.11292515 494.36070756 23.103933 494.36102466 25.09494019 494.36215687 C30.4952756 494.36273067 35.89552216 494.35097188 41.29583693 494.33700895 C46.94127928 494.32450619 52.58672367 494.32333145 58.23217773 494.32095814 C68.92053649 494.31474204 79.60885434 494.29832944 90.29719508 494.27825916 C102.46638355 494.25590421 114.63557397 494.24490774 126.80477786 494.23486829 C151.8358068 494.21396336 176.86679942 494.17878483 201.89779663 494.13422108 C201.95273663 493.3848572 202.00767662 492.63549332 202.06428146 491.86342144 C202.31690901 488.43899307 202.57362669 485.01488291 202.83041382 481.59076405 C202.91677094 480.41189121 203.00312805 479.23301838 203.09210205 478.01842213 C203.67458906 470.30089184 204.47109427 462.82307216 206.14779663 455.25922108 C206.47203613 453.73156116 206.47203613 453.73156116 206.80282593 452.17303944 C211.57985441 430.34857597 219.76111692 410.94565586 229.89779663 391.13422108 C230.89889878 389.13477253 231.89904765 387.1348461 232.89779663 385.13422108 C231.88421585 384.13063305 231.88421585 384.13063305 230.85015869 383.10677052 C224.45725763 376.7749041 218.07246015 370.43496413 211.69534111 364.08720207 C208.41719908 360.82466052 205.13634925 357.56494571 201.84896851 354.31171131 C198.67165157 351.16718891 195.50189769 348.01521731 192.33707047 344.85812664 C191.13336138 343.65992517 189.92703185 342.4643498 188.71795273 341.27156734 C182.36059139 334.99644418 176.46432018 328.88597287 171.89779663 321.13422108 C171.32029663 320.28859608 170.74279663 319.44297108 170.14779663 318.57172108 C164.37545037 307.31564587 165.16970554 293.83325171 168.89779663 282.13422108 C172.01156644 273.15279459 179.32847335 264.76856859 187.62435913 260.16156483 C201.09251658 254.07543869 214.90411581 253.02603829 228.89779663 258.13422108 C236.97053356 261.71233931 243.02540875 267.68126409 249.30795288 273.72015858 C251.42963277 276.24786214 251.42963277 276.24786214 252.89779663 276.13422108 C252.89779663 207.82422108 252.89779663 139.51422108 252.89779663 69.13422108 C163.13779663 69.13422108 73.37779663 69.13422108 -19.10220337 69.13422108 Z " fill="#ffffff" transform="translate(88.10220336914063,-0.13422107696533203)"/>
<path d="M0 0 C4.65060081 2.79036049 8.17842776 6.07136488 11.95703125 9.94921875 C13.76808204 11.76719517 15.61504344 13.45635501 17.5625 15.125 C21.60354501 18.6001393 25.48795673 22.2299947 29.375 25.875 C33.6145708 29.84849112 37.86099542 33.80832384 42.1875 37.6875 C42.96351563 38.38746094 43.73953125 39.08742187 44.5390625 39.80859375 C46.32965206 41.40307112 48.13968293 42.97579713 49.9609375 44.53515625 C65.4290445 57.94817984 76.65747571 76.5678856 78.16965652 97.32928991 C78.43671859 103.78151398 78.37630951 110.23668374 78.34057617 116.69287109 C78.33972847 118.85254403 78.34020784 121.01221782 78.34190369 123.17189026 C78.34275946 128.99533271 78.32520174 134.81858732 78.30418181 140.64198637 C78.28534491 146.74248504 78.28365906 152.84298869 78.28010559 158.94351196 C78.27080566 170.47806751 78.24621976 182.01253708 78.21605712 193.54705489 C78.18244908 206.68617428 78.16601103 219.82529792 78.15097082 232.96444964 C78.1196683 259.97634892 78.06633894 286.988166 78 314 C72.06 314 66.12 314 60 314 C59.99413376 311.30805481 59.98826752 308.61610962 59.98222351 305.84259033 C59.92553178 280.47563075 59.85243927 255.10875618 59.76428509 229.74188614 C59.71935742 216.70049092 59.6799357 203.65912282 59.65356445 190.61767578 C59.63055992 179.24813681 59.59713432 167.8786839 59.55129844 156.50921321 C59.5273995 150.49155455 59.50864886 144.47398094 59.50238609 138.45627594 C59.49632027 132.7862197 59.47626605 127.11638099 59.44572449 121.44640541 C59.4369683 119.37126236 59.43321664 117.29609086 59.43499184 115.2209301 C59.44682428 94.99740903 56.33559938 78.30750442 42 63 C35.32713815 56.38093605 28.3347244 50.08926073 21.2109375 43.9609375 C17.95874572 41.07648472 14.79687412 38.09724295 11.625 35.125 C3.91056418 27.89849391 -3.8054529 20.68502527 -12 14 C-9.87753203 10.13284962 -7.47253855 7.25594323 -4.3125 4.1875 C-3.50425781 3.39730469 -2.69601562 2.60710937 -1.86328125 1.79296875 C-1.24839844 1.20128906 -0.63351562 0.60960937 0 0 Z " fill="#ffffff" transform="translate(383,198)"/>
<path d="M0 0 C0.86132034 -0.00960754 1.72264069 -0.01921509 2.61006165 -0.02911377 C3.53820175 -0.03336365 4.46634186 -0.03761353 5.42260742 -0.04199219 C6.38075851 -0.04769226 7.33890961 -0.05339233 8.32609558 -0.05926514 C10.3544301 -0.06871263 12.38277995 -0.07524813 14.41113281 -0.07910156 C17.50572687 -0.08879717 20.5996539 -0.11981896 23.6940918 -0.15136719 C25.66609307 -0.15789849 27.63809908 -0.16314846 29.61010742 -0.16699219 C30.53217484 -0.17933899 31.45424225 -0.19168579 32.4042511 -0.20440674 C39.22164491 -0.18091085 43.49559664 0.94115328 48.46557617 5.91113281 C52.54178984 11.798997 53.02483674 17.69123903 53.01635742 24.62207031 C53.02064255 25.41207428 53.02492767 26.20207825 53.02934265 27.01602173 C53.03505503 28.67831469 53.03560917 30.34063263 53.03125 32.00292969 C53.02809356 34.52225167 53.05157481 37.04039336 53.0769043 39.55957031 C53.15196741 57.85002381 53.15196741 57.85002381 47.99682617 64.31738281 C47.40901367 64.76082031 46.82120117 65.20425781 46.21557617 65.66113281 C45.33385742 66.35722656 45.33385742 66.35722656 44.43432617 67.06738281 C41.4639047 68.95765102 38.87463563 69.29337679 35.44702148 69.33813477 C34.15988251 69.35738762 34.15988251 69.35738762 32.84674072 69.37702942 C31.45923615 69.38810982 31.45923615 69.38810982 30.04370117 69.39941406 C29.08792175 69.40748581 28.13214233 69.41555756 27.1473999 69.4238739 C25.12326873 69.43770602 23.09911432 69.44843208 21.07495117 69.45629883 C17.99116352 69.47349017 14.90845409 69.5173818 11.82495117 69.56152344 C9.85620904 69.57165269 7.88745781 69.58016807 5.91870117 69.58691406 C5.00179504 69.60442215 4.08488892 69.62193024 3.14019775 69.63996887 C-4.0351204 69.61585971 -8.40656516 68.03899148 -13.59692383 62.84863281 C-17.1849917 57.13430251 -17.59321546 51.24773347 -17.58520508 44.70019531 C-17.5894902 43.91019135 -17.59377533 43.12018738 -17.59819031 42.3062439 C-17.60390269 40.64395094 -17.60445683 38.981633 -17.60009766 37.31933594 C-17.59694122 34.80001396 -17.62042247 32.28187227 -17.64575195 29.76269531 C-17.72081506 11.47224182 -17.72081506 11.47224182 -12.56567383 5.00488281 C-11.97786133 4.56144531 -11.39004883 4.11800781 -10.78442383 3.66113281 C-10.19661133 3.19707031 -9.60879883 2.73300781 -9.00317383 2.25488281 C-6.02260416 0.35815666 -3.43847504 0.03101868 0 0 Z M0.71557617 18.16113281 C0.71557617 29.05113281 0.71557617 39.94113281 0.71557617 51.16113281 C11.93557617 51.16113281 23.15557617 51.16113281 34.71557617 51.16113281 C34.71557617 40.27113281 34.71557617 29.38113281 34.71557617 18.16113281 C23.49557617 18.16113281 12.27557617 18.16113281 0.71557617 18.16113281 Z " fill="#ffffff" transform="translate(272.284423828125,84.8388671875)"/>
<path d="M0 0 C1.28229744 -0.02409439 1.28229744 -0.02409439 2.59049988 -0.04867554 C6.50465942 -0.09335943 10.41865242 -0.13420643 14.33300781 -0.15722656 C16.39204229 -0.17375718 18.45102007 -0.20100879 20.50976562 -0.23925781 C23.48898891 -0.29428241 26.46686883 -0.3159414 29.4465332 -0.33056641 C30.35827805 -0.35323578 31.27002289 -0.37590515 32.20939636 -0.39926147 C38.56053247 -0.37847072 42.97273747 0.88035413 47.74731445 5.19287109 C52.29543265 10.29756577 52.34900279 15.87252061 52.3137207 22.43896484 C52.31991928 23.40890884 52.32611786 24.37885284 52.33250427 25.37818909 C52.33958077 27.42130535 52.33646652 29.46447954 52.32373047 31.50756836 C52.3098698 34.61795138 52.34396274 37.72531997 52.38208008 40.83544922 C52.38303147 42.82828849 52.38117139 44.82113149 52.3762207 46.81396484 C52.38947891 47.73503525 52.40273712 48.65610565 52.41639709 49.60508728 C52.32640108 55.90780905 51.15082297 60.52071262 46.74731445 65.19287109 C41.24190053 69.4590192 35.51596141 69.77502843 28.77075195 69.68896484 C27.84187164 69.69042007 26.91299133 69.69187531 25.95596313 69.69337463 C24.00454552 69.69172379 22.05311377 69.68025456 20.10180664 69.65942383 C17.12370347 69.63038464 14.14737449 69.63884922 11.16918945 69.65185547 C9.26553502 69.64561946 7.36188616 69.6372296 5.45825195 69.62646484 C4.57374359 69.62940048 3.68923523 69.63233612 2.77792358 69.63536072 C-3.16847709 69.54498978 -7.58313455 68.65535 -12.1159668 64.47412109 C-12.59420898 63.88630859 -13.07245117 63.29849609 -13.56518555 62.69287109 C-14.05631836 62.10505859 -14.54745117 61.51724609 -15.0534668 60.91162109 C-17.07932439 58.00811185 -17.38211259 55.43239347 -17.41381836 52.00024414 C-17.4234259 51.15894455 -17.43303345 50.31764496 -17.44293213 49.45085144 C-17.44718201 48.54458511 -17.45143188 47.63831879 -17.45581055 46.70458984 C-17.46151062 45.7686348 -17.46721069 44.83267975 -17.4730835 43.86836243 C-17.48253037 41.88710662 -17.48906624 39.90583513 -17.49291992 37.92456055 C-17.50261492 34.90238823 -17.53363693 31.88089912 -17.56518555 28.85888672 C-17.57171693 26.93245846 -17.57696687 25.00602534 -17.58081055 23.07958984 C-17.59315735 22.17939621 -17.60550415 21.27920258 -17.6182251 20.35173035 C-17.59698274 14.32991325 -16.77275454 9.92485498 -12.53393555 5.32958984 C-11.94612305 4.85134766 -11.35831055 4.37310547 -10.75268555 3.88037109 C-10.16487305 3.38923828 -9.57706055 2.89810547 -8.97143555 2.39208984 C-6.05650024 0.35825998 -3.44633048 0.05902699 0 0 Z M0.74731445 18.19287109 C0.74731445 29.08287109 0.74731445 39.97287109 0.74731445 51.19287109 C11.63731445 51.19287109 22.52731445 51.19287109 33.74731445 51.19287109 C33.74731445 40.30287109 33.74731445 29.41287109 33.74731445 18.19287109 C22.85731445 18.19287109 11.96731445 18.19287109 0.74731445 18.19287109 Z " fill="#ffffff" transform="translate(187.252685546875,340.80712890625)"/>
<path d="M0 0 C1.42873695 -0.00218285 1.42873695 -0.00218285 2.88633728 -0.00440979 C4.89080885 -0.00275672 6.8952939 0.00873781 8.8996582 0.02954102 C11.95904666 0.0585388 15.01670446 0.05012839 18.07617188 0.03710938 C20.02995629 0.04334638 21.98373527 0.05173702 23.9375 0.0625 C25.30177879 0.05809654 25.30177879 0.05809654 26.69361877 0.05360413 C32.71313409 0.14260704 37.1729528 0.97841656 41.765625 5.21484375 C42.24386719 5.80265625 42.72210938 6.39046875 43.21484375 6.99609375 C43.95154297 7.8778125 43.95154297 7.8778125 44.703125 8.77734375 C46.72898259 11.680853 47.03177079 14.25657137 47.06347656 17.6887207 C47.07308411 18.53002029 47.08269165 19.37131989 47.09259033 20.2381134 C47.09684021 21.14437973 47.10109009 22.05064606 47.10546875 22.984375 C47.11116882 23.92033005 47.1168689 24.8562851 47.1227417 25.82060242 C47.13218858 27.80185822 47.13872444 29.78312972 47.14257812 31.7644043 C47.15227312 34.78657661 47.18329513 37.80806572 47.21484375 40.83007812 C47.22137514 42.75650639 47.22662507 44.6829395 47.23046875 46.609375 C47.24281555 47.50956863 47.25516235 48.40976227 47.2678833 49.3372345 C47.24664094 55.3590516 46.42241274 59.76410987 42.18359375 64.359375 C41.59578125 64.83761719 41.00796875 65.31585938 40.40234375 65.80859375 C39.520625 66.54529297 39.520625 66.54529297 38.62109375 67.296875 C35.73280286 69.31211433 33.15682045 69.62723345 29.74145508 69.6730957 C28.48918877 69.69234856 28.48918877 69.69234856 27.21162415 69.71199036 C26.31163193 69.71937729 25.41163971 69.72676422 24.484375 69.734375 C23.5531633 69.74244675 22.6219516 69.75051849 21.66252136 69.75883484 C19.68966529 69.77266739 17.71678537 69.78339325 15.74389648 69.79125977 C12.74350861 69.80842971 9.74423516 69.85231817 6.74414062 69.89648438 C4.82422683 69.90661561 2.90430368 69.91513036 0.984375 69.921875 C0.09450394 69.93938309 -0.79536713 69.95689117 -1.71220398 69.97492981 C-7.60070336 69.95467693 -12.35852215 69.18353265 -17.09765625 65.49609375 C-22.25764212 60.01067511 -22.84186399 54.42107835 -22.76171875 47.15234375 C-22.76650238 46.1838147 -22.77128601 45.21528564 -22.7762146 44.21740723 C-22.77960017 42.18024053 -22.77049239 40.1430185 -22.74951172 38.10595703 C-22.72272703 35.00429064 -22.7493056 31.90624258 -22.78125 28.8046875 C-22.77794566 26.81639834 -22.77153894 24.82811141 -22.76171875 22.83984375 C-22.7718399 21.9219104 -22.78196106 21.00397705 -22.79238892 20.05822754 C-22.67827978 13.72673788 -21.39300308 9.26185305 -17.09765625 4.49609375 C-12.01196359 -0.0289371 -6.53868859 -0.08094313 0 0 Z M-4.09765625 18.49609375 C-4.09765625 29.38609375 -4.09765625 40.27609375 -4.09765625 51.49609375 C6.79234375 51.49609375 17.68234375 51.49609375 28.90234375 51.49609375 C28.90234375 40.60609375 28.90234375 29.71609375 28.90234375 18.49609375 C18.01234375 18.49609375 7.12234375 18.49609375 -4.09765625 18.49609375 Z " fill="#ffffff" transform="translate(107.09765625,340.50390625)"/>
<path d="M0 0 C0.79472717 -0.01283524 1.58945435 -0.02567047 2.40826416 -0.03889465 C3.68488922 -0.04997505 3.68488922 -0.04997505 4.98730469 -0.0612793 C6.31541168 -0.07338692 6.31541168 -0.07338692 7.67034912 -0.08573914 C9.54307106 -0.09955308 11.4158179 -0.11028723 13.28857422 -0.11816406 C15.19522527 -0.12967726 17.10184426 -0.15011864 19.00830078 -0.1796875 C21.77235682 -0.22253923 24.53545694 -0.23855755 27.29980469 -0.2487793 C28.14279114 -0.26628738 28.98577759 -0.28379547 29.85430908 -0.30183411 C36.28190038 -0.27854225 41.6601717 1.16947258 46.47296143 5.6245575 C50.09538828 9.71827645 51.01282732 13.0458395 51.08618164 18.35961914 C51.10543449 19.58174103 51.10543449 19.58174103 51.12507629 20.82855225 C51.13246323 21.7015094 51.13985016 22.57446655 51.14746094 23.47387695 C51.15553268 24.38147766 51.16360443 25.28907837 51.17192078 26.22418213 C51.18573607 28.14398299 51.19646962 30.06380816 51.2043457 31.98364258 C51.21585995 33.93879435 51.23630295 35.89391483 51.26586914 37.84887695 C51.30870743 40.68242635 51.32473744 43.51504324 51.33496094 46.34887695 C51.35246902 47.21373718 51.36997711 48.07859741 51.38801575 48.96966553 C51.36724035 54.84499209 50.22554311 59.27084602 46.90917969 64.17700195 C42.97937909 67.91510496 39.90847858 69.29075396 34.53295898 69.33813477 C33.65161789 69.34774231 32.77027679 69.35734985 31.86222839 69.36724854 C30.43720757 69.37362335 30.43720757 69.37362335 28.98339844 69.38012695 C28.0030513 69.38582703 27.02270416 69.3915271 26.01264954 69.3973999 C23.93723631 69.40684799 21.8618081 69.41338313 19.78637695 69.41723633 C16.61936085 69.42693251 13.45299634 69.45795409 10.28613281 69.48950195 C8.26855854 69.49603317 6.25097962 69.50128317 4.23339844 69.50512695 C3.28945724 69.51747375 2.34551605 69.52982056 1.37297058 69.5425415 C-4.60849528 69.52238993 -9.12632181 68.88096258 -13.73535156 64.67700195 C-16.86996384 60.65127916 -18.20327006 57.87661861 -18.26782227 52.81665039 C-18.2806575 51.93853699 -18.29349274 51.06042358 -18.30671692 50.15570068 C-18.31410385 49.20882385 -18.32149078 48.26194702 -18.32910156 47.28637695 C-18.33717331 46.30840149 -18.34524506 45.33042603 -18.3535614 44.32281494 C-18.36739436 42.25160491 -18.37812004 40.18037215 -18.38598633 38.10913086 C-18.4031791 34.9529254 -18.44707037 31.797773 -18.49121094 28.6418457 C-18.50134002 26.62753047 -18.50985545 24.61320635 -18.51660156 22.59887695 C-18.53410965 21.66009705 -18.55161774 20.72131714 -18.56965637 19.75408936 C-18.54972824 13.68674394 -17.661609 10.1295499 -14.09082031 5.17700195 C-9.47674328 1.52419097 -5.79862662 0.08209248 0 0 Z M-0.09082031 18.17700195 C-0.09082031 29.06700195 -0.09082031 39.95700195 -0.09082031 51.17700195 C10.79917969 51.17700195 21.68917969 51.17700195 32.90917969 51.17700195 C32.90917969 40.28700195 32.90917969 29.39700195 32.90917969 18.17700195 C22.01917969 18.17700195 11.12917969 18.17700195 -0.09082031 18.17700195 Z " fill="#ffffff" transform="translate(103.0908203125,169.822998046875)"/>
<path d="M0 0 C1.28229744 -0.02409439 1.28229744 -0.02409439 2.59049988 -0.04867554 C6.50465942 -0.09335943 10.41865242 -0.13420643 14.33300781 -0.15722656 C16.39204229 -0.17375718 18.45102007 -0.20100879 20.50976562 -0.23925781 C23.48898891 -0.29428241 26.46686883 -0.3159414 29.4465332 -0.33056641 C30.35827805 -0.35323578 31.27002289 -0.37590515 32.20939636 -0.39926147 C38.56053247 -0.37847072 42.97273747 0.88035413 47.74731445 5.19287109 C52.29543265 10.29756577 52.34900279 15.87252061 52.3137207 22.43896484 C52.31991928 23.40890884 52.32611786 24.37885284 52.33250427 25.37818909 C52.33958077 27.42130535 52.33646652 29.46447954 52.32373047 31.50756836 C52.3098698 34.61795138 52.34396274 37.72531997 52.38208008 40.83544922 C52.38303147 42.82828849 52.38117139 44.82113149 52.3762207 46.81396484 C52.38947891 47.73503525 52.40273712 48.65610565 52.41639709 49.60508728 C52.32640108 55.90780905 51.15082297 60.52071262 46.74731445 65.19287109 C41.24190053 69.4590192 35.51596141 69.77502843 28.77075195 69.68896484 C27.84187164 69.69042007 26.91299133 69.69187531 25.95596313 69.69337463 C24.00454552 69.69172379 22.05311377 69.68025456 20.10180664 69.65942383 C17.12370347 69.63038464 14.14737449 69.63884922 11.16918945 69.65185547 C9.26553502 69.64561946 7.36188616 69.6372296 5.45825195 69.62646484 C4.57374359 69.62940048 3.68923523 69.63233612 2.77792358 69.63536072 C-3.16847709 69.54498978 -7.58313455 68.65535 -12.1159668 64.47412109 C-12.59420898 63.88630859 -13.07245117 63.29849609 -13.56518555 62.69287109 C-14.05631836 62.10505859 -14.54745117 61.51724609 -15.0534668 60.91162109 C-17.07932439 58.00811185 -17.38211259 55.43239347 -17.41381836 52.00024414 C-17.4234259 51.15894455 -17.43303345 50.31764496 -17.44293213 49.45085144 C-17.44718201 48.54458511 -17.45143188 47.63831879 -17.45581055 46.70458984 C-17.46151062 45.7686348 -17.46721069 44.83267975 -17.4730835 43.86836243 C-17.48253037 41.88710662 -17.48906624 39.90583513 -17.49291992 37.92456055 C-17.50261492 34.90238823 -17.53363693 31.88089912 -17.56518555 28.85888672 C-17.57171693 26.93245846 -17.57696687 25.00602534 -17.58081055 23.07958984 C-17.59315735 22.17939621 -17.60550415 21.27920258 -17.6182251 20.35173035 C-17.59698274 14.32991325 -16.77275454 9.92485498 -12.53393555 5.32958984 C-11.94612305 4.85134766 -11.35831055 4.37310547 -10.75268555 3.88037109 C-10.16487305 3.38923828 -9.57706055 2.89810547 -8.97143555 2.39208984 C-6.05650024 0.35825998 -3.44633048 0.05902699 0 0 Z M0.74731445 18.19287109 C0.74731445 29.08287109 0.74731445 39.97287109 0.74731445 51.19287109 C11.63731445 51.19287109 22.52731445 51.19287109 33.74731445 51.19287109 C33.74731445 40.30287109 33.74731445 29.41287109 33.74731445 18.19287109 C22.85731445 18.19287109 11.96731445 18.19287109 0.74731445 18.19287109 Z " fill="#ffffff" transform="translate(187.252685546875,84.80712890625)"/>
<path d="M0 0 C1.42873695 -0.00218285 1.42873695 -0.00218285 2.88633728 -0.00440979 C4.89080885 -0.00275672 6.8952939 0.00873781 8.8996582 0.02954102 C11.95904666 0.0585388 15.01670446 0.05012839 18.07617188 0.03710938 C20.02995629 0.04334638 21.98373527 0.05173702 23.9375 0.0625 C25.30177879 0.05809654 25.30177879 0.05809654 26.69361877 0.05360413 C32.71313409 0.14260704 37.1729528 0.97841656 41.765625 5.21484375 C42.24386719 5.80265625 42.72210938 6.39046875 43.21484375 6.99609375 C43.95154297 7.8778125 43.95154297 7.8778125 44.703125 8.77734375 C46.72898259 11.680853 47.03177079 14.25657137 47.06347656 17.6887207 C47.07308411 18.53002029 47.08269165 19.37131989 47.09259033 20.2381134 C47.09684021 21.14437973 47.10109009 22.05064606 47.10546875 22.984375 C47.11116882 23.92033005 47.1168689 24.8562851 47.1227417 25.82060242 C47.13218858 27.80185822 47.13872444 29.78312972 47.14257812 31.7644043 C47.15227312 34.78657661 47.18329513 37.80806572 47.21484375 40.83007812 C47.22137514 42.75650639 47.22662507 44.6829395 47.23046875 46.609375 C47.24281555 47.50956863 47.25516235 48.40976227 47.2678833 49.3372345 C47.24664094 55.3590516 46.42241274 59.76410987 42.18359375 64.359375 C41.59578125 64.83761719 41.00796875 65.31585938 40.40234375 65.80859375 C39.520625 66.54529297 39.520625 66.54529297 38.62109375 67.296875 C35.73280286 69.31211433 33.15682045 69.62723345 29.74145508 69.6730957 C28.48918877 69.69234856 28.48918877 69.69234856 27.21162415 69.71199036 C26.31163193 69.71937729 25.41163971 69.72676422 24.484375 69.734375 C23.5531633 69.74244675 22.6219516 69.75051849 21.66252136 69.75883484 C19.68966529 69.77266739 17.71678537 69.78339325 15.74389648 69.79125977 C12.74350861 69.80842971 9.74423516 69.85231817 6.74414062 69.89648438 C4.82422683 69.90661561 2.90430368 69.91513036 0.984375 69.921875 C0.09450394 69.93938309 -0.79536713 69.95689117 -1.71220398 69.97492981 C-7.60070336 69.95467693 -12.35852215 69.18353265 -17.09765625 65.49609375 C-22.25764212 60.01067511 -22.84186399 54.42107835 -22.76171875 47.15234375 C-22.76650238 46.1838147 -22.77128601 45.21528564 -22.7762146 44.21740723 C-22.77960017 42.18024053 -22.77049239 40.1430185 -22.74951172 38.10595703 C-22.72272703 35.00429064 -22.7493056 31.90624258 -22.78125 28.8046875 C-22.77794566 26.81639834 -22.77153894 24.82811141 -22.76171875 22.83984375 C-22.7718399 21.9219104 -22.78196106 21.00397705 -22.79238892 20.05822754 C-22.67827978 13.72673788 -21.39300308 9.26185305 -17.09765625 4.49609375 C-12.01196359 -0.0289371 -6.53868859 -0.08094313 0 0 Z M-4.09765625 18.49609375 C-4.09765625 29.38609375 -4.09765625 40.27609375 -4.09765625 51.49609375 C6.79234375 51.49609375 17.68234375 51.49609375 28.90234375 51.49609375 C28.90234375 40.60609375 28.90234375 29.71609375 28.90234375 18.49609375 C18.01234375 18.49609375 7.12234375 18.49609375 -4.09765625 18.49609375 Z " fill="#ffffff" transform="translate(107.09765625,84.50390625)"/>
<path d="M0 0 C1.32954208 -0.00642769 1.32954208 -0.00642769 2.6859436 -0.01298523 C4.55689644 -0.01871551 6.42787156 -0.0192384 8.29882812 -0.01489258 C11.14752617 -0.01173707 13.99518053 -0.03519234 16.84375 -0.06054688 C18.66666536 -0.06282059 20.4895835 -0.06352303 22.3125 -0.0625 C23.15751068 -0.07170975 24.00252136 -0.08091949 24.87313843 -0.09040833 C31.62384607 -0.03812084 36.31864416 1.21465021 41.6015625 5.67578125 C46.19570806 11.18875592 46.09668383 16.31493631 46.08984375 23.203125 C46.09412888 24.1584462 46.098414 25.1137674 46.10282898 26.09803772 C46.10856088 28.1144227 46.10908095 30.13082835 46.10473633 32.1472168 C46.101577 35.22415601 46.12504776 38.30013271 46.15039062 41.37695312 C46.15266387 43.33984254 46.153367 45.30273453 46.15234375 47.265625 C46.1615535 48.1814183 46.17076324 49.09721161 46.18025208 50.04075623 C46.13778268 55.93390846 45.42649195 60.40922448 41.2890625 64.9453125 C37.26333971 68.07992478 34.48867916 69.413231 29.42871094 69.4777832 C28.55059753 69.49061844 27.67248413 69.50345367 26.76776123 69.51667786 C25.8208844 69.52406479 24.87400757 69.53145172 23.8984375 69.5390625 C22.92046204 69.54713425 21.94248657 69.55520599 20.93487549 69.56352234 C18.86366545 69.5773553 16.7924327 69.58808098 14.72119141 69.59594727 C11.56498595 69.61314004 8.40983354 69.65703131 5.25390625 69.70117188 C3.23959102 69.71130096 1.2252669 69.71981639 -0.7890625 69.7265625 C-1.72784241 69.74407059 -2.66662231 69.76157867 -3.6338501 69.77961731 C-9.70024265 69.7596923 -13.26149533 68.87578155 -18.2109375 65.30078125 C-21.51360502 61.0420784 -23.32084734 57.60480896 -23.37207031 52.21582031 C-23.38167786 51.39776917 -23.3912854 50.57971802 -23.40118408 49.73687744 C-23.4075589 48.4149942 -23.4075589 48.4149942 -23.4140625 47.06640625 C-23.41976257 46.15501892 -23.42546265 45.24363159 -23.43133545 44.30462646 C-23.44078259 42.37464558 -23.4473183 40.44464859 -23.45117188 38.51464844 C-23.4608548 35.57588153 -23.49187145 32.63782086 -23.5234375 29.69921875 C-23.52997016 27.82161872 -23.5352196 25.94401371 -23.5390625 24.06640625 C-23.5514093 23.19324768 -23.5637561 22.32008911 -23.57647705 21.42047119 C-23.55467643 15.38638109 -22.79358062 10.38442891 -18.78125 5.59375 C-12.4607461 0.75941864 -7.72704424 -0.00829446 0 0 Z M-5.2109375 18.30078125 C-5.2109375 29.19078125 -5.2109375 40.08078125 -5.2109375 51.30078125 C5.6790625 51.30078125 16.5690625 51.30078125 27.7890625 51.30078125 C27.7890625 40.41078125 27.7890625 29.52078125 27.7890625 18.30078125 C16.8990625 18.30078125 6.0090625 18.30078125 -5.2109375 18.30078125 Z " fill="#ffffff" transform="translate(193.2109375,169.69921875)"/>
<path d="M0 0 C0.90335587 -0.00524185 1.80671173 -0.0104837 2.73744202 -0.0158844 C4.63932268 -0.02227974 6.54124303 -0.021 8.44311523 -0.01245117 C11.33584756 -0.00394099 14.22660289 -0.03273724 17.11914062 -0.06445312 C18.97525983 -0.06606551 20.8313825 -0.06548689 22.6875 -0.0625 C23.54294907 -0.07373398 24.39839813 -0.08496796 25.2797699 -0.09654236 C31.87579481 -0.02086792 37.37624695 1.55427855 42.25 6.1796875 C42.61222656 6.73785156 42.97445312 7.29601562 43.34765625 7.87109375 C43.72792969 8.42667969 44.10820312 8.98226562 44.5 9.5546875 C46.80579311 14.31471533 46.58412274 19.51715653 46.61328125 24.69921875 C46.61898132 25.49205261 46.6246814 26.28488647 46.6305542 27.10174561 C46.63997415 28.77598753 46.6465262 30.45024775 46.65039062 32.12451172 C46.66007182 34.66146946 46.691113 37.19760787 46.72265625 39.734375 C46.84672213 58.20868425 46.84672213 58.20868425 41.65625 64.58984375 C40.76099609 65.255 40.76099609 65.255 39.84765625 65.93359375 C39.24824219 66.39765625 38.64882813 66.86171875 38.03125 67.33984375 C35.20422344 69.24723516 33.43163133 69.56877369 30.05566406 69.6105957 C29.15422668 69.62343094 28.25278931 69.63626617 27.32403564 69.64949036 C26.34698669 69.65687729 25.36993774 69.66426422 24.36328125 69.671875 C23.35932312 69.67994675 22.35536499 69.68801849 21.32098389 69.69633484 C19.19252248 69.71018217 17.06403881 69.72090141 14.93554688 69.72875977 C11.68706877 69.74595132 8.43961387 69.78982967 5.19140625 69.83398438 C3.1237054 69.84411309 1.0559959 69.85262863 -1.01171875 69.859375 C-1.98067078 69.87688309 -2.9496228 69.89439117 -3.94793701 69.91242981 C-9.69444367 69.89403709 -13.04881161 69.3124293 -17.58984375 65.43359375 C-23.31856859 59.54573766 -23.89761924 52.72388006 -23.85546875 44.90234375 C-23.8573822 44.10759644 -23.85929565 43.31284912 -23.86126709 42.49401855 C-23.86262058 40.82332032 -23.85898293 39.15261127 -23.85058594 37.48193359 C-23.83987429 34.94083788 -23.85050957 32.40044901 -23.86328125 29.859375 C-23.86195951 28.22786304 -23.85939681 26.59635152 -23.85546875 24.96484375 C-23.85951721 24.21360229 -23.86356567 23.46236084 -23.86773682 22.68835449 C-23.81356525 16.52179622 -22.91541072 11.40300754 -19.40234375 6.18359375 C-13.57161447 0.48243624 -7.78993588 -0.02666956 0 0 Z M-5.58984375 18.43359375 C-5.58984375 29.32359375 -5.58984375 40.21359375 -5.58984375 51.43359375 C5.63015625 51.43359375 16.85015625 51.43359375 28.41015625 51.43359375 C28.41015625 40.54359375 28.41015625 29.65359375 28.41015625 18.43359375 C17.19015625 18.43359375 5.97015625 18.43359375 -5.58984375 18.43359375 Z " fill="#ffffff" transform="translate(278.58984375,169.56640625)"/>
<path d="M0 0 C0.90136185 -0.01283524 1.80272369 -0.02567047 2.73139954 -0.03889465 C4.18923103 -0.04997505 4.18923103 -0.04997505 5.67651367 -0.0612793 C7.18032845 -0.07338692 7.18032845 -0.07338692 8.71452332 -0.08573914 C10.83700841 -0.09957168 12.95951566 -0.11029754 15.08203125 -0.11816406 C18.32163803 -0.13537667 21.56022418 -0.1792708 24.79956055 -0.22338867 C26.86270409 -0.23351592 28.9258563 -0.24203192 30.98901367 -0.2487793 C31.95482864 -0.26628738 32.92064362 -0.28379547 33.91572571 -0.30183411 C39.64837945 -0.2834207 43.0100092 0.29550465 47.53198242 4.17700195 C51.13769232 8.17251833 52.64471175 11.09581362 52.69311523 16.46142578 C52.70272278 17.32274612 52.71233032 18.18406647 52.722229 19.07148743 C52.72647888 19.99962753 52.73072876 20.92776764 52.73510742 21.8840332 C52.7408075 22.8421843 52.74650757 23.80033539 52.75238037 24.78752136 C52.76182787 26.81585588 52.76836336 28.84420573 52.7722168 30.87255859 C52.7819124 33.96715265 52.81293419 37.06107968 52.84448242 40.15551758 C52.85101372 42.12751885 52.85626369 44.09952486 52.86010742 46.0715332 C52.87245422 46.99360062 52.88480103 47.91566803 52.89752197 48.86567688 C52.87655452 54.94943944 52.07898881 59.35815729 47.84838867 64.0402832 C47.26959961 64.51852539 46.69081055 64.99676758 46.09448242 65.48950195 C45.23016602 66.22620117 45.23016602 66.22620117 44.34838867 66.9777832 C41.26944558 69.01054778 38.16137387 69.30157127 34.53295898 69.33813477 C33.75825256 69.34774231 32.98354614 69.35734985 32.18536377 69.36724854 C31.35615417 69.37149841 30.52694458 69.37574829 29.67260742 69.38012695 C28.37779449 69.38867706 28.37779449 69.38867706 27.05682373 69.3973999 C25.23117289 69.4068349 23.40550513 69.41337792 21.57983398 69.41723633 C18.80576331 69.42691895 16.03244115 69.45794679 13.25854492 69.48950195 C11.47990346 69.49603503 9.70125673 69.50128431 7.92260742 69.50512695 C7.10149475 69.51747375 6.28038208 69.52982056 5.43438721 69.5425415 C-0.42667365 69.52020023 -6.39949018 68.87762449 -10.99725342 64.83111572 C-16.27941765 58.82929884 -16.78437973 53.41504147 -16.80395508 45.7824707 C-16.81061188 44.87628494 -16.81726868 43.97009918 -16.8241272 43.03645325 C-16.83423196 41.12263003 -16.83894489 39.20877174 -16.83862305 37.29492188 C-16.84298748 34.38457349 -16.87930554 31.47575332 -16.91723633 28.56567383 C-16.9231069 26.7004446 -16.92707468 24.83520822 -16.92895508 22.9699707 C-16.94332611 22.10824753 -16.95769714 21.24652435 -16.97250366 20.35868835 C-16.92876455 14.50054642 -15.76992943 10.07090215 -12.46801758 5.17700195 C-8.50469908 1.40701607 -5.41448508 0.06726346 0 0 Z M1.53198242 18.17700195 C1.53198242 29.06700195 1.53198242 39.95700195 1.53198242 51.17700195 C12.42198242 51.17700195 23.31198242 51.17700195 34.53198242 51.17700195 C34.53198242 40.28700195 34.53198242 29.39700195 34.53198242 18.17700195 C23.64198242 18.17700195 12.75198242 18.17700195 1.53198242 18.17700195 Z " fill="#ffffff" transform="translate(186.468017578125,255.822998046875)"/>
<path d="M0 0 C1.34731453 -0.01925285 1.34731453 -0.01925285 2.72184753 -0.03889465 C3.69575943 -0.04628159 4.66967133 -0.05366852 5.6730957 -0.0612793 C6.67468216 -0.06935104 7.67626862 -0.07742279 8.70820618 -0.08573914 C10.83247137 -0.09958772 12.95675889 -0.1103064 15.08105469 -0.11816406 C18.31854976 -0.13533718 21.55501322 -0.17921219 24.79223633 -0.22338867 C26.85668195 -0.23351906 28.92113625 -0.24203408 30.9855957 -0.2487793 C31.94938644 -0.26628738 32.91317719 -0.28379547 33.90617371 -0.30183411 C40.03985917 -0.28220053 43.66389687 0.54808902 48.66137695 4.17700195 C51.95740563 8.42714419 53.76437946 11.86888884 53.83837891 17.24609375 C53.85763176 18.46832893 53.85763176 18.46832893 53.87727356 19.71525574 C53.88466049 20.59337418 53.89204742 21.47149261 53.8996582 22.3762207 C53.90772995 23.28523636 53.9158017 24.19425201 53.92411804 25.1308136 C53.9379497 27.05659077 53.94867596 28.98239235 53.95654297 30.90820312 C53.97371086 33.83617446 54.0175996 36.76300315 54.06176758 39.69067383 C54.07189904 41.56501451 54.08041372 43.43936477 54.0871582 45.3137207 C54.10466629 46.18171799 54.12217438 47.04971527 54.14021301 47.9440155 C54.11519659 55.04631116 52.37130097 60.46707794 47.28637695 65.55200195 C41.50746492 69.12942369 36.17294523 69.48510242 29.5715332 69.4777832 C28.70878281 69.48206833 27.84603241 69.48635345 26.95713806 69.49076843 C25.13924026 69.49649075 23.32131957 69.49702753 21.50341797 69.49267578 C18.73600884 69.48951581 15.9696698 69.51300087 13.20239258 69.53833008 C11.42960746 69.54060343 9.65681949 69.5413064 7.8840332 69.5402832 C7.06403336 69.54949295 6.24403351 69.5587027 5.39918518 69.56819153 C-0.64838341 69.51995573 -5.59827138 68.57890381 -10.29956055 64.45825195 C-10.76620117 63.87043945 -11.2328418 63.28262695 -11.71362305 62.67700195 C-12.43678711 61.7952832 -12.43678711 61.7952832 -13.17456055 60.89575195 C-15.17242717 57.94588177 -15.46856592 55.35003843 -15.49975586 51.89257812 C-15.5093634 51.03125778 -15.51897095 50.16993744 -15.52886963 49.28251648 C-15.53311951 48.35437637 -15.53736938 47.42623627 -15.54174805 46.4699707 C-15.54744812 45.51181961 -15.55314819 44.55366852 -15.559021 43.56648254 C-15.56846849 41.53814802 -15.57500398 39.50979817 -15.57885742 37.48144531 C-15.58855302 34.38685126 -15.61957481 31.29292423 -15.65112305 28.19848633 C-15.65765435 26.22648506 -15.66290432 24.25447904 -15.66674805 22.2824707 C-15.67909485 21.36040329 -15.69144165 20.43833588 -15.7041626 19.48832703 C-15.68376913 13.57110867 -15.02021793 9.04965194 -10.8034668 4.5324707 C-6.92219434 1.56443882 -4.84891553 0.060298 0 0 Z M2.66137695 18.17700195 C2.66137695 29.06700195 2.66137695 39.95700195 2.66137695 51.17700195 C13.55137695 51.17700195 24.44137695 51.17700195 35.66137695 51.17700195 C35.66137695 40.28700195 35.66137695 29.39700195 35.66137695 18.17700195 C24.77137695 18.17700195 13.88137695 18.17700195 2.66137695 18.17700195 Z " fill="#ffffff" transform="translate(100.338623046875,255.822998046875)"/>
<path d="M0 0 C5.94 0 11.88 0 18 0 C18 5.94 18 11.88 18 18 C12.06 18 6.12 18 0 18 C0 12.06 0 6.12 0 0 Z " fill="#ffffff" transform="translate(196,460)"/>
</svg>