<svg xmlns="http://www.w3.org/2000/svg" xmlns:xlink="http://www.w3.org/1999/xlink" viewBox="0,0,256,256" width="50px" height="50px" fill-rule="nonzero"><g fill="#ffffff" fill-rule="nonzero" stroke="none" stroke-width="1" stroke-linecap="butt" stroke-linejoin="miter" stroke-miterlimit="10" stroke-dasharray="" stroke-dashoffset="0" font-family="none" font-weight="none" font-size="none" text-anchor="none" style="mix-blend-mode: normal"><g transform="scale(5.12,5.12)"><path d="M49.04,24.001l-1.082,-0.043h-0.001c-11.823,-0.466 -21.449,-10.092 -21.915,-21.915l-0.043,-1.083c-0.021,-0.536 -0.462,-0.96 -0.999,-0.96c-0.537,0 -0.978,0.424 -0.999,0.96l-0.043,1.083c-0.466,11.823 -10.092,21.449 -21.916,21.915l-1.082,0.043c-0.536,0.021 -0.96,0.462 -0.96,0.999c0,0.537 0.424,0.978 0.961,0.999l1.082,0.042c11.823,0.467 21.449,10.093 21.915,21.916l0.043,1.083c0.021,0.536 0.462,0.96 0.999,0.96c0.537,0 0.978,-0.424 0.999,-0.96l0.043,-1.083c0.466,-11.823 10.092,-21.449 21.915,-21.916l1.082,-0.042c0.537,-0.021 0.961,-0.462 0.961,-0.999c0,-0.537 -0.424,-0.978 -0.96,-0.999z"></path></g></g></svg>